<?xml version="1.0" encoding="UTF-8" standalone="no"?>
<!-- Created with Inkscape (http://www.inkscape.org/) -->

<svg
   width="666.67"
   height="666.67"
   inkscape:version="1.1 (c68e22c387, 2021-05-23)"
   sodipodi:docname="xx.svg"
   version="1.1"
   viewBox="0 0 666.67 666.67"
   xml:space="preserve"
   id="svg587"
   xmlns:inkscape="http://www.inkscape.org/namespaces/inkscape"
   xmlns:sodipodi="http://sodipodi.sourceforge.net/DTD/sodipodi-0.dtd"
   xmlns="http://www.w3.org/2000/svg"
   xmlns:svg="http://www.w3.org/2000/svg"><defs
     id="defs209"><clipPath
       id="clipPath25"><path
         d="m0 500h500v-500h-500z"
         id="path2" /></clipPath><linearGradient
       id="linearGradient61"
       x2="1"
       gradientTransform="matrix(33.202 -57.508 -57.508 -33.202 393.47 133.28)"
       gradientUnits="userSpaceOnUse"><stop
         stop-color="#682691"
         offset="0"
         id="stop5" /><stop
         stop-color="#291c7a"
         offset=".45469"
         id="stop7" /><stop
         stop-color="#291c7a"
         offset="1"
         id="stop9" /></linearGradient><linearGradient
       id="linearGradient83"
       x2="1"
       gradientTransform="matrix(33.202 -57.508 -57.508 -33.202 70.205 133.28)"
       gradientUnits="userSpaceOnUse"><stop
         stop-color="#682691"
         offset="0"
         id="stop12" /><stop
         stop-color="#291c7a"
         offset=".45469"
         id="stop14" /><stop
         stop-color="#291c7a"
         offset="1"
         id="stop16" /></linearGradient><clipPath
       id="clipPath93"><path
         d="m0 500h500v-500h-500z"
         id="path19" /></clipPath><linearGradient
       id="linearGradient153"
       x2="1"
       gradientTransform="matrix(50.254 -87.043 -87.043 -50.254 224.87 426.08)"
       gradientUnits="userSpaceOnUse"><stop
         stop-color="#682691"
         offset="0"
         id="stop22" /><stop
         stop-color="#291c7a"
         offset=".45469"
         id="stop24" /><stop
         stop-color="#291c7a"
         offset="1"
         id="stop26" /></linearGradient><linearGradient
       id="linearGradient179"
       x2="1"
       gradientTransform="matrix(5.3047 -9.188 -9.188 -5.3047 301.63 360.25)"
       gradientUnits="userSpaceOnUse"><stop
         stop-color="#682691"
         offset="0"
         id="stop29" /><stop
         stop-color="#291c7a"
         offset=".45469"
         id="stop31" /><stop
         stop-color="#291c7a"
         offset="1"
         id="stop33" /></linearGradient><linearGradient
       id="linearGradient201"
       x2="1"
       gradientTransform="matrix(5.3047 -9.188 -9.188 -5.3047 193.06 360.25)"
       gradientUnits="userSpaceOnUse"><stop
         stop-color="#682691"
         offset="0"
         id="stop36" /><stop
         stop-color="#291c7a"
         offset=".45469"
         id="stop38" /><stop
         stop-color="#291c7a"
         offset="1"
         id="stop40" /></linearGradient><clipPath
       id="clipPath211"><path
         d="m0 500h500v-500h-500z"
         id="path43" /></clipPath><clipPath
       id="clipPath225"><path
         d="m94.678 346.27h310.64v-3.204h-310.64z"
         id="path46" /></clipPath><linearGradient
       id="linearGradient253"
       x2="1"
       gradientTransform="matrix(78.673 -136.27 -136.27 -78.673 210.66 400.66)"
       gradientUnits="userSpaceOnUse"><stop
         stop-color="#fbd05c"
         offset="0"
         id="stop49" /><stop
         stop-color="#ffa95a"
         offset="1"
         id="stop51" /></linearGradient><clipPath
       id="clipPath263"><path
         d="m0 500h500v-500h-500z"
         id="path54" /></clipPath><clipPath
       id="clipPath271"><path
         d="m97.414 335.27h305.17v-1.616h-305.17z"
         id="path57" /></clipPath><linearGradient
       id="linearGradient351"
       x2="1"
       gradientTransform="matrix(14.499 -25.112 -25.112 -14.499 395.02 297.11)"
       gradientUnits="userSpaceOnUse"><stop
         stop-color="#ff837e"
         offset="0"
         id="stop60" /><stop
         stop-color="#f5567a"
         offset="1"
         id="stop62" /></linearGradient><clipPath
       id="clipPath361"><path
         d="m0 500h500v-500h-500z"
         id="path65" /></clipPath><clipPath
       id="clipPath373"><path
         d="m94.678 286.55h310.64v-174.93h-310.64z"
         id="path68" /></clipPath><clipPath
       id="clipPath389"><path
         d="m104.28 153.4h83.007v-7.492h-83.007z"
         id="path71" /></clipPath><clipPath
       id="clipPath405"><path
         d="m312.71 153.4h83.007v-7.492h-83.007z"
         id="path74" /></clipPath><clipPath
       id="clipPath429"><path
         d="M 0,18.9562 H 18.9564 V 0 H 0 Z"
         id="path77" /></clipPath><pattern
       id="pattern443"
       width="18.9564"
       height="18.9562"
       patternTransform="matrix(8.5872 0 0 8.5872 -80.724 -227.11)"
       patternUnits="userSpaceOnUse"><g
         clip-path="url(#clipPath429)"
         id="g84"><g
           transform="translate(18.956 4.7391)"
           id="g82"><path
             d="m0 0v-1.58l-3.16-3.159h-1.579l4.739 4.739zm0 4.739-9.478-9.478h-4.739l14.217 14.217v-4.739zm-9.478 9.478-9.478-9.478v4.739l4.739 4.739h4.739zm6.319 0-15.797-15.797v1.58l14.217 14.217h1.58z"
             fill="#003d46"
             id="path80" /></g></g></pattern><linearGradient
       id="linearGradient467"
       x2="1"
       gradientTransform="matrix(14.501 -25.117 -25.117 -14.501 327.84 297.11)"
       gradientUnits="userSpaceOnUse"><stop
         stop-color="#ff837e"
         offset="0"
         id="stop87" /><stop
         stop-color="#f5567a"
         offset="1"
         id="stop89" /></linearGradient><clipPath
       id="clipPath477"><path
         d="m0 500h500v-500h-500z"
         id="path92" /></clipPath><clipPath
       id="clipPath483"><path
         d="M 0,18.9562 H 18.9564 V 0 H 0 Z"
         id="path95" /></clipPath><pattern
       id="pattern497"
       width="18.9564"
       height="18.9562"
       patternTransform="matrix(8.5872 0 0 8.5872 47.996 -132.55)"
       patternUnits="userSpaceOnUse"><g
         clip-path="url(#clipPath483)"
         id="g102"><g
           transform="translate(18.956 4.7391)"
           id="g100"><path
             d="m0 0v-1.58l-3.16-3.159h-1.579l4.739 4.739zm0 4.739-9.478-9.478h-4.739l14.217 14.217v-4.739zm-9.478 9.478-9.478-9.478v4.739l4.739 4.739h4.739zm6.319 0-15.797-15.797v1.58l14.217 14.217h1.58z"
             fill="#003d46"
             id="path98" /></g></g></pattern><linearGradient
       id="linearGradient521"
       x2="1"
       gradientTransform="matrix(34.088 -59.043 -59.043 -34.088 232.96 242.96)"
       gradientUnits="userSpaceOnUse"><stop
         stop-color="#fbd05c"
         offset="0"
         id="stop105" /><stop
         stop-color="#ffa95a"
         offset="1"
         id="stop107" /></linearGradient><linearGradient
       id="linearGradient543"
       x2="1"
       gradientTransform="matrix(30.313 -52.503 -52.503 -30.313 234.84 239.69)"
       gradientUnits="userSpaceOnUse"><stop
         stop-color="#682691"
         offset="0"
         id="stop110" /><stop
         stop-color="#291c7a"
         offset=".45469"
         id="stop112" /><stop
         stop-color="#291c7a"
         offset="1"
         id="stop114" /></linearGradient><clipPath
       id="clipPath553"><path
         d="m0 500h500v-500h-500z"
         id="path117" /></clipPath><linearGradient
       id="linearGradient583"
       x2="1"
       gradientTransform="matrix(14.501 -25.117 -25.117 -14.501 260.67 297.11)"
       gradientUnits="userSpaceOnUse"><stop
         stop-color="#ff837e"
         offset="0"
         id="stop120" /><stop
         stop-color="#f5567a"
         offset="1"
         id="stop122" /></linearGradient><linearGradient
       id="linearGradient603"
       x2="1"
       gradientTransform="matrix(14.499 -25.114 -25.114 -14.499 193.49 297.11)"
       gradientUnits="userSpaceOnUse"><stop
         stop-color="#ff837e"
         offset="0"
         id="stop125" /><stop
         stop-color="#f5567a"
         offset="1"
         id="stop127" /></linearGradient><clipPath
       id="clipPath613"><path
         d="m0 500h500v-500h-500z"
         id="path130" /></clipPath><clipPath
       id="clipPath621"><path
         d="M 0,18.9562 H 18.9564 V 0 H 0 Z"
         id="path133" /></clipPath><pattern
       id="pattern635"
       width="18.9564"
       height="18.9562"
       patternTransform="matrix(8.5872 0 0 8.5872 152.21 -77.448)"
       patternUnits="userSpaceOnUse"><g
         clip-path="url(#clipPath621)"
         id="g140"><g
           transform="translate(18.956 4.7391)"
           id="g138"><path
             d="m0 0v-1.58l-3.16-3.159h-1.579l4.739 4.739zm0 4.739-9.478-9.478h-4.739l14.217 14.217v-4.739zm-9.478 9.478-9.478-9.478v4.739l4.739 4.739h4.739zm6.319 0-15.797-15.797v1.58l14.217 14.217h1.58z"
             fill="#003d46"
             id="path136" /></g></g></pattern><linearGradient
       id="linearGradient663"
       x2="1"
       gradientTransform="matrix(14.502 -25.118 -25.118 -14.502 126.31 297.11)"
       gradientUnits="userSpaceOnUse"><stop
         stop-color="#ff837e"
         offset="0"
         id="stop143" /><stop
         stop-color="#f5567a"
         offset="1"
         id="stop145" /></linearGradient><clipPath
       id="clipPath673"><path
         d="m0 500h500v-500h-500z"
         id="path148" /></clipPath><clipPath
       id="clipPath701"><path
         d="m356.01 232.33h27.726v-67.67h-27.726z"
         id="path151" /></clipPath><clipPath
       id="clipPath717"><path
         d="m327.93 179.07h14.406v-14.406h-14.406z"
         id="path154" /></clipPath><clipPath
       id="clipPath731"><path
         d="m122.14 211h40.345v-46.334h-40.345z"
         id="path157" /></clipPath><linearGradient
       id="linearGradient771"
       x2="1"
       gradientTransform="matrix(3.8581 -6.6824 -6.6824 -3.8581 166.76 94.636)"
       gradientUnits="userSpaceOnUse"><stop
         stop-color="#682691"
         offset="0"
         id="stop160" /><stop
         stop-color="#291c7a"
         offset=".45469"
         id="stop162" /><stop
         stop-color="#291c7a"
         offset="1"
         id="stop164" /></linearGradient><clipPath
       id="clipPath781"><path
         d="m0 500h500v-500h-500z"
         id="path167" /></clipPath><linearGradient
       id="linearGradient825"
       x2="1"
       gradientTransform="matrix(3.917 -6.7844 -6.7844 -3.917 187.48 92.432)"
       gradientUnits="userSpaceOnUse"><stop
         stop-color="#682691"
         offset="0"
         id="stop170" /><stop
         stop-color="#291c7a"
         offset=".45469"
         id="stop172" /><stop
         stop-color="#291c7a"
         offset="1"
         id="stop174" /></linearGradient><clipPath
       id="clipPath835"><path
         d="m0 500h500v-500h-500z"
         id="path177" /></clipPath><linearGradient
       id="linearGradient869"
       x2="1"
       gradientTransform="matrix(21.472 -37.191 -37.191 -21.472 176.27 208.87)"
       gradientUnits="userSpaceOnUse"><stop
         stop-color="#ff837e"
         offset="0"
         id="stop180" /><stop
         stop-color="#f5567a"
         offset="1"
         id="stop182" /></linearGradient><clipPath
       id="clipPath879"><path
         d="m0 500h500v-500h-500z"
         id="path185" /></clipPath><linearGradient
       id="linearGradient907"
       x2="1"
       gradientTransform="matrix(15.093 -26.142 -26.142 -15.093 179.48 229.15)"
       gradientUnits="userSpaceOnUse"><stop
         stop-color="#682691"
         offset="0"
         id="stop188" /><stop
         stop-color="#291c7a"
         offset=".45469"
         id="stop190" /><stop
         stop-color="#291c7a"
         offset="1"
         id="stop192" /></linearGradient><linearGradient
       id="linearGradient929"
       x2="1"
       gradientTransform="matrix(24.414 -83.586 -83.586 -24.414 168.21 177.83)"
       gradientUnits="userSpaceOnUse"><stop
         stop-color="#682691"
         offset="0"
         id="stop195" /><stop
         stop-color="#291c7a"
         offset=".45469"
         id="stop197" /><stop
         stop-color="#291c7a"
         offset="1"
         id="stop199" /></linearGradient><linearGradient
       id="linearGradient951"
       x2="1"
       gradientTransform="matrix(24.414 -83.586 -83.586 -24.414 180.66 181.47)"
       gradientUnits="userSpaceOnUse"><stop
         stop-color="#682691"
         offset="0"
         id="stop202" /><stop
         stop-color="#291c7a"
         offset=".45469"
         id="stop204" /><stop
         stop-color="#291c7a"
         offset="1"
         id="stop206" /></linearGradient></defs><sodipodi:namedview
     bordercolor="#999999"
     borderopacity="1"
     inkscape:current-layer="g585"
     inkscape:cx="333.14733"
     inkscape:cy="154.76191"
     inkscape:pagecheckerboard="0"
     inkscape:pageopacity="0"
     inkscape:pageshadow="0"
     inkscape:window-height="2050"
     inkscape:window-maximized="1"
     inkscape:window-width="3840"
     inkscape:window-x="3348"
     inkscape:window-y="-12"
     inkscape:zoom="2.6879999"
     pagecolor="#ffffff"
     showgrid="false"
     id="namedview211" /><g
     transform="matrix(1.3333 0 0 -1.3333 0 666.67)"
     inkscape:groupmode="layer"
     inkscape:label="3861184"
     id="g585"><g
       clip-path="url(#clipPath25)"
       id="g231"><g
         transform="translate(395.5 81.104)"
         id="g217"><path
           d="m0 0h-294.14c-21.385 0-38.722 17.336-38.722 38.721v25.543c0 21.384 17.337 38.72 38.722 38.72h294.14c21.385 0 38.722-17.336 38.722-38.72v-25.543c0-21.385-17.337-38.721-38.722-38.721"
           fill="#d8e9f0"
           id="path215" /></g><g
         transform="translate(395.5 229.89)"
         id="g221"><path
           d="m0 0h-294.14c-21.385 0-38.722 17.337-38.722 38.722v25.542c0 21.385 17.337 38.721 38.722 38.721h294.14c21.385 0 38.722-17.336 38.722-38.721v-25.542c0-21.385-17.337-38.722-38.722-38.722"
           fill="#d8e9f0"
           id="path219" /></g><g
         transform="translate(332.59 309.54)"
         id="g225"><path
           d="m0 0h-209.81c-15.253 0-27.619 12.366-27.619 27.62v18.218c0 15.254 12.366 27.62 27.619 27.62h209.81c15.253 0 27.619-12.366 27.619-27.62v-18.218c0-15.254-12.366-27.62-27.619-27.62"
           fill="#d8e9f0"
           id="path223" /></g><g
         transform="translate(407.74 172.56)"
         id="g229"><path
           d="m0 0h-294.14c-21.385 0-38.722 17.336-38.722 38.721s17.337 38.721 38.722 38.721h294.14c21.385 0 38.722-17.336 38.722-38.721s-17.337-38.721-38.722-38.721"
           fill="#d8e9f0"
           id="path227" /></g></g><path
       d="m411.55 132.15c-1.624 5.65-3.236 8.471-4.836 8.465-3.137-0.014-6.227-10.895-9.271-32.646-1.496 7.941-4.677 22.123-8.866 22.167-5.232 0.055-9.323-21.968-10.479-28.616-6.799 7.17-10.963 10.259-12.494 9.27-1.938-1.251 0.346-9.044 6.852-23.376 25.257 0.269 50.513 0.538 75.77 0.807 7.871 4.806 11.399 12.087 9.672 15.718-1.874 3.94-11.108 6.055-20.957 0.806 0.323 1.487 5.145 24.193 0 26.196-4.126 1.608-12.629-10.884-14.509-13.703 1.894 16.401 1.491 24.999-1.21 25.794-0.137 0.041-0.281 0.061-0.431 0.061-2.006 0-5.086-3.647-9.241-10.943"
       fill="url(#linearGradient61)"
       id="path233" /><path
       d="m88.285 132.15c-1.625 5.65-3.237 8.471-4.837 8.465-3.136-0.014-6.226-10.895-9.27-32.646-1.497 7.941-4.677 22.123-8.867 22.167-5.232 0.055-9.322-21.968-10.478-28.616-6.799 7.17-10.963 10.259-12.494 9.27-1.939-1.251 0.344-9.044 6.85-23.376 25.258 0.269 50.514 0.538 75.771 0.807 7.871 4.806 11.399 12.087 9.673 15.718-1.874 3.94-11.109 6.055-20.958 0.806 0.323 1.487 5.145 24.193 0 26.196-4.125 1.608-12.628-10.884-14.509-13.703 1.894 16.401 1.492 24.999-1.209 25.794-0.138 0.041-0.282 0.061-0.431 0.061-2.007 0-5.087-3.647-9.241-10.943"
       fill="url(#linearGradient83)"
       id="path235" /><g
       clip-path="url(#clipPath93)"
       id="g277"><g
         transform="translate(303.94 265.11)"
         id="g239"><path
           d="m0 0v-7.492h-107.88v7.492z"
           fill="#868df4"
           id="path237" /></g><g
         transform="translate(411.63 111.62)"
         id="g243"><path
           d="m0 0v-24.206h-111.25v24.206h104.94z"
           fill="#868df4"
           id="path241" /></g><g
         transform="translate(199.61 111.62)"
         id="g247"><path
           d="m0 0v-24.206h-111.25v24.206h6.312z"
           fill="#868df4"
           id="path245" /></g><g
         transform="translate(411.63 111.62)"
         id="g251"><path
           d="m0 0v-2.134h-111.25v2.134h104.94z"
           fill="#b2b3f6"
           id="path249" /></g><g
         transform="translate(199.61 111.62)"
         id="g255"><path
           d="m0 0v-2.134h-111.25v2.134h6.312z"
           fill="#b2b3f6"
           id="path253" /></g><g
         transform="translate(187.29 265.11)"
         id="g259"><path
           d="m0 0v-7.492h-83.006v7.492z"
           fill="#868df4"
           id="path257" /></g><g
         transform="translate(395.71 265.11)"
         id="g263"><path
           d="m0 0v-7.492h-83.006v7.492z"
           fill="#868df4"
           id="path261" /></g><g
         transform="translate(300.39 111.62)"
         id="g267"><path
           d="m0 0v-24.206h-8.523v162.68h-83.726v-162.68h-8.522v170.21h100.77z"
           fill="#b2b3f6"
           id="path265" /></g><g
         transform="translate(317.45 359.54)"
         id="g271"><path
           d="m0 0h-134.91c-6.531 0-11.874 5.343-11.874 11.874v22.298c0 6.531 5.343 11.873 11.874 11.873h134.91c6.531 0 11.874-5.342 11.874-11.873v-22.298c0-6.531-5.343-11.874-11.874-11.874"
           fill="#5b6bf5"
           id="path269" /></g><g
         transform="translate(181.83 362.55)"
         id="g275"><path
           d="m0 0c-4.822 0-8.745 3.923-8.745 8.746v22.534c0 4.822 3.923 8.745 8.745 8.745h136.34c4.822 0 8.745-3.923 8.745-8.745v-22.534c0-4.823-3.923-8.746-8.745-8.746z"
           fill="none"
           stroke="#b2b3f6"
           stroke-dasharray="1, 5"
           stroke-linecap="round"
           stroke-miterlimit="10"
           stroke-width="2"
           id="path273" /></g></g><path
       d="m182.55 400.58c-3.79 0-6.873-3.084-6.873-6.874v-22.298c0-3.791 3.083-6.874 6.873-6.874h134.91c3.79 0 6.874 3.083 6.874 6.874v22.298c0 3.79-3.084 6.874-6.874 6.874z"
       fill="url(#linearGradient153)"
       id="path279" /><text
       transform="scale(1,-1)"
       x="189.78621"
       y="-372.93893"
       fill="#f8fbfc"
       font-family="Oswald"
       font-size="26.617px"
       font-weight="200"
       id="text283"><tspan
         x="189.78621"
         y="-372.93893"
         sodipodi:role="line"
         id="tspan281"> </tspan></text><path
       d="m300.4 351.77h7.767v7.766h-7.767z"
       fill="url(#linearGradient179)"
       id="path285" /><path
       d="m191.83 351.77h7.766v7.766h-7.766z"
       fill="url(#linearGradient201)"
       id="path287" /><g
       clip-path="url(#clipPath211)"
       id="g303"><g
         transform="translate(411.63 355.65)"
         id="g291"><path
           d="m0 0v-9.379h-323.27v9.379z"
           fill="#b2b3f6"
           id="path289" /></g><path
         d="m405.32 335.27h-310.64v11.002h310.64z"
         fill="#5b6bf5"
         id="path293" /><g
         clip-path="url(#clipPath225)"
         id="g297"><path
           d="m405.32 343.07h-310.64v3.204h310.64z"
           fill="#d1d4d5"
           id="path295" /></g><g
         transform="translate(405.32 329.77)"
         id="g301"><path
           d="m0 0v-10.992h-310.64v10.992z"
           fill="#5b6bf5"
           id="path299" /></g></g><path
       d="m97.413 329.78h305.17v5.495h-305.17z"
       fill="url(#linearGradient253)"
       id="path305" /><g
       clip-path="url(#clipPath263)"
       id="g367"><g
         clip-path="url(#clipPath271)"
         id="g309"><path
           d="m402.59 333.66h-305.17v1.615h305.17z"
           fill="#d1d4d5"
           id="path307" /></g><g
         transform="translate(374.26 318.78)"
         id="g313"><path
           d="m0 0 10.101-27.833h-33.598l-7.567 27.833z"
           fill="#eef5f7"
           id="path311" /></g><g
         transform="translate(125.74 318.78)"
         id="g317"><path
           d="m0 0-10.101-27.833h-33.587l12.624 27.833z"
           fill="#eef5f7"
           id="path315" /></g><g
         transform="translate(187.87 318.78)"
         id="g321"><path
           d="m0 0-5.045-27.833h-33.587l7.568 27.833z"
           fill="#eef5f7"
           id="path319" /></g><g
         transform="translate(250 318.78)"
         id="g325"><path
           d="m0 0v-27.833h-33.587l2.523 27.833z"
           fill="#eef5f7"
           id="path323" /></g><g
         transform="translate(312.13 318.78)"
         id="g329"><path
           d="m0 0 5.045-27.833h-33.587l-2.522 27.833z"
           fill="#eef5f7"
           id="path327" /></g><g
         transform="translate(115.64 290.95)"
         id="g333"><path
           d="m0 0v-4.401c0-9.274-7.514-16.788-16.788-16.788-1.406 0-2.77 0.171-4.068 0.494-7.311 1.824-12.731 8.426-12.731 16.294v4.401z"
           fill="#bed4de"
           id="path331" /></g><g
         transform="translate(182.83 290.95)"
         id="g337"><path
           d="m0 0v-4.401c0-9.274-7.524-16.788-16.799-16.788-9.274 0-16.788 7.514-16.788 16.788v4.401z"
           fill="#bed4de"
           id="path335" /></g><g
         transform="translate(250 290.95)"
         id="g341"><path
           d="m0 0v-4.401c0-9.274-7.514-16.788-16.799-16.788-9.274 0-16.788 7.514-16.788 16.788v4.401z"
           fill="#bed4de"
           id="path339" /></g><g
         transform="translate(317.17 290.95)"
         id="g345"><path
           d="m0 0v-4.401c0-9.274-7.514-16.788-16.788-16.788s-16.799 7.514-16.799 16.788v4.401z"
           fill="#bed4de"
           id="path343" /></g><g
         transform="translate(384.36 290.95)"
         id="g349"><path
           d="m0 0v-4.401c0-9.274-7.524-16.788-16.798-16.788-9.275 0-16.799 7.514-16.799 16.788v4.401z"
           fill="#bed4de"
           id="path347" /></g><g
         transform="translate(405.32 318.78)"
         id="g353"><path
           d="m0 0 12.623-27.833h-33.587l-10.1 27.833z"
           fill="#f99"
           id="path351" /></g><g
         transform="translate(343.19 318.78)"
         id="g357"><path
           d="m0 0 7.568-27.833h-33.587l-5.045 27.833z"
           fill="#f99"
           id="path355" /></g><g
         transform="translate(281.06 318.78)"
         id="g361"><path
           d="m0 0 2.522-27.833h-33.586v27.833z"
           fill="#f99"
           id="path359" /></g><g
         transform="translate(218.94 318.78)"
         id="g365"><path
           d="m0 0-2.522-27.833h-33.587l5.045 27.833z"
           fill="#f99"
           id="path363" /></g></g><path
       d="m384.36 290.95v-4.4c0-9.274 7.514-16.788 16.788-16.788 1.406 0 2.769 0.171 4.068 0.494 7.31 1.824 12.731 8.425 12.731 16.294v4.4z"
       fill="url(#linearGradient351)"
       id="path369" /><g
       clip-path="url(#clipPath361)"
       id="g413"><g
         transform="translate(187.29 149.66)"
         id="g373"><path
           d="m0 0v7.492h-4.465v100.47h4.465v7.493h-83.006v-7.493h4.465v-100.47h-4.465v-7.492zm208.42 0v7.492h-4.465v100.47h4.465v7.493h-83.006v-7.493h4.465v-100.47h-4.465v-7.492zm9.607 120.1v-158.14h-104.94v146h3.553v7.493h-107.88v-7.493h3.553v-146h-104.94v158.14l0.107 0.493c1.299-0.322 2.662-0.493 4.068-0.493 9.274 0 16.789 7.513 16.789 16.788 0-9.275 7.524-16.788 16.798-16.788s16.799 7.513 16.799 16.788c0-9.275 7.514-16.788 16.788-16.788s16.799 7.513 16.799 16.788c0-9.275 7.514-16.788 16.788-16.788s16.799 7.513 16.799 16.788c0-9.275 7.513-16.788 16.788-16.788 9.285 0 16.798 7.513 16.798 16.788 0-9.275 7.514-16.788 16.799-16.788 9.275 0 16.788 7.513 16.788 16.788 0-9.275 7.525-16.788 16.799-16.788s16.788 7.513 16.788 16.788c0-9.275 7.525-16.788 16.799-16.788s16.788 7.513 16.788 16.788c0-9.275 7.525-16.788 16.799-16.788s16.798 7.513 16.798 16.788c0-9.275 7.515-16.788 16.788-16.788 1.407 0 2.77 0.171 4.069 0.493z"
           fill="#5b6bf5"
           id="path371" /></g><g
         clip-path="url(#clipPath373)"
         opacity=".3"
         id="g379"><g
           transform="translate(187.29 149.66)"
           id="g377"><path
             d="m0 0v7.492h-4.465v100.47h4.465v7.493h-83.006v-7.493h4.465v-100.47h-4.465v-7.492zm208.42 0v7.492h-4.465v100.47h4.465v7.493h-83.006v-7.493h4.465v-100.47h-4.465v-7.492zm9.607 120.1v-158.14h-104.94v146h3.553v7.493h-107.88v-7.493h3.553v-146h-104.94v158.14l0.107 0.493c1.299-0.322 2.662-0.493 4.068-0.493 9.274 0 16.789 7.513 16.789 16.788 0-9.275 7.524-16.788 16.798-16.788s16.799 7.513 16.799 16.788c0-9.275 7.514-16.788 16.788-16.788s16.799 7.513 16.799 16.788c0-9.275 7.514-16.788 16.788-16.788s16.799 7.513 16.799 16.788c0-9.275 7.513-16.788 16.788-16.788 9.285 0 16.798 7.513 16.798 16.788 0-9.275 7.514-16.788 16.799-16.788 9.275 0 16.788 7.513 16.788 16.788 0-9.275 7.525-16.788 16.799-16.788s16.788 7.513 16.788 16.788c0-9.275 7.525-16.788 16.799-16.788s16.788 7.513 16.788 16.788c0-9.275 7.525-16.788 16.799-16.788s16.798 7.513 16.798 16.788c0-9.275 7.515-16.788 16.788-16.788 1.407 0 2.77 0.171 4.069 0.493z"
             id="path375" /></g></g><g
         clip-path="url(#clipPath389)"
         id="g385"><g
           transform="translate(187.29 153.4)"
           id="g383"><path
             d="m0 0v-7.492h-83.006v7.492h78.541z"
             fill="#d1d4d5"
             id="path381" /></g></g><g
         clip-path="url(#clipPath405)"
         id="g391"><g
           transform="translate(395.71 153.4)"
           id="g389"><path
             d="m0 0v-7.492h-83.006v7.492h78.541z"
             fill="#d1d4d5"
             id="path387" /></g></g><g
         transform="translate(187.29 157.15)"
         id="g395"><path
           d="m0 0v-7.492h-83.006v7.492h78.541z"
           fill="#868df4"
           id="path393" /></g><g
         transform="translate(395.71 157.15)"
         id="g399"><path
           d="m0 0v-7.492h-83.006v7.492h78.541z"
           fill="#868df4"
           id="path397" /></g><g
         id="g407"><path
           d="m383.74 250.11h-59.048v-85.443h59.048zm7.515-92.957h-74.076v100.47h74.076z"
           fill="#b2b3f6"
           id="path401" /><path
           d="m324.19 250.61h60.048v-86.443h-60.048z"
           fill="#afe2f5"
           id="path403" /><path
           d="m324.19 250.61h60.048v-86.443h-60.048z"
           fill="url(#pattern443)"
           id="path405" /></g><g
         transform="translate(384.74 251.11)"
         id="g411"><path
           d="m0 0h-61.048v-87.443h61.048v86.443zm-1-86.443h-59.048v85.443h59.048z"
           fill="#81bac8"
           id="path409" /></g></g><path
       d="m317.17 290.95v-4.4c0-9.274 7.525-16.788 16.8-16.788 9.273 0 16.788 7.514 16.788 16.788v4.4z"
       fill="url(#linearGradient467)"
       id="path415" /><g
       clip-path="url(#clipPath477)"
       id="g425"><path
         d="m207.64 250.58h84.726v-163.68h-84.726z"
         fill="#afe2f5"
         id="path417" /><path
         d="m207.64 250.58h84.726v-163.68h-84.726z"
         fill="url(#pattern497)"
         id="path419" /><g
         transform="translate(292.86 251.08)"
         id="g423"><path
           d="m0 0h-85.726v-164.68h85.726v163.68zm-1-163.68h-83.726v162.68h83.726z"
           fill="#81bac8"
           id="path421" /></g></g><path
       d="m221.22 235.72c-1.644 0-2.977-1.333-2.977-2.978v-38.613c0-1.645 1.333-2.978 2.977-2.978h57.561c1.646 0 2.978 1.333 2.978 2.978v38.613c0 1.645-1.332 2.978-2.978 2.978z"
       fill="url(#linearGradient521)"
       id="path427" /><path
       d="m222.74 232.5c-0.703 0-1.274-0.572-1.274-1.276v-35.577c0-0.704 0.571-1.275 1.274-1.275h54.527c0.705 0 1.275 0.571 1.275 1.275v35.577c0 0.704-0.57 1.276-1.275 1.276z"
       fill="url(#linearGradient543)"
       id="path429" /><g
       clip-path="url(#clipPath553)"
       id="g435"><g
         transform="translate(221.46 195.65)"
         id="g433"><path
           d="m0 0v35.578c0 0.704 0.571 1.276 1.275 1.276h54.526c0.704 0 1.275-0.572 1.275-1.276v-35.578c0-0.704-0.571-1.274-1.275-1.274h-54.526c-0.704 0-1.275 0.57-1.275 1.274z"
           fill="none"
           stroke="#eef5f7"
           stroke-miterlimit="10"
           id="path431" /></g></g><text
       transform="scale(0.74825333,-1.3364458)"
       x="299.94281"
       y="-148.93712"
       fill="#f8fbfc"
       font-family="Oswald"
       font-size="13.8034px"
       font-weight="600"
       stroke-width="0.652734"
       id="text439"><tspan
         x="299.94281"
         y="-148.93712"
         stroke-width="0.652734"
         sodipodi:role="line"
         id="tspan437">ABERTOS</tspan></text><text
       transform="scale(1.0111694,-0.98895398)"
       x="223.50642"
       y="-220.8555"
       fill="#ffd250"
       font-family="Yellowtail"
       font-size="13.72px"
       stroke-width="0.824174"
       id="text443"><tspan
         x="223.50642"
         y="-220.8555"
         stroke-width="0.824174"
         sodipodi:role="line"
         id="tspan441">estamos</tspan></text><path
       d="m250 290.95v-4.4c0-9.274 7.513-16.788 16.799-16.788 9.274 0 16.788 7.514 16.788 16.788v4.4z"
       fill="url(#linearGradient583)"
       id="path445" /><path
       d="m182.83 290.95v-4.4c0-9.274 7.514-16.788 16.789-16.788 9.274 0 16.798 7.514 16.798 16.788v4.4z"
       fill="url(#linearGradient603)"
       id="path447" /><g
       clip-path="url(#clipPath613)"
       id="g465"><g
         id="g455"><path
           d="m175.31 250.11h-59.048v-85.443h59.048zm7.514-92.957h-74.076v100.47h74.076z"
           fill="#b2b3f6"
           id="path449" /><path
           d="m115.76 250.61h60.048v-86.443h-60.048z"
           fill="#afe2f5"
           id="path451" /><path
           d="m115.76 250.61h60.048v-86.443h-60.048z"
           fill="url(#pattern635)"
           id="path453" /></g><g
         transform="translate(176.31 251.11)"
         id="g459"><path
           d="m0 0h-61.048v-87.443h61.048v86.443zm-1-86.443h-59.048v85.443h59.048z"
           fill="#81bac8"
           id="path457" /></g><g
         transform="translate(156.81 318.78)"
         id="g463"><path
           d="m0 0-7.568-27.833h-33.597l10.101 27.833z"
           fill="#f99"
           id="path461" /></g></g><path
       d="m115.64 290.95v-4.4c0-9.274 7.525-16.788 16.798-16.788 9.275 0 16.799 7.514 16.799 16.788v4.4z"
       fill="url(#linearGradient663)"
       id="path467" /><g
       clip-path="url(#clipPath673)"
       id="g517"><g
         transform="translate(220.65 182.65)"
         id="g471"><path
           d="m0 0c0-1.376-1.116-2.491-2.492-2.491s-2.491 1.115-2.491 2.491 1.115 2.492 2.491 2.492 2.492-1.116 2.492-2.492"
           fill="#81bac8"
           id="path469" /></g><g
         transform="translate(220.65 154.66)"
         id="g475"><path
           d="m0 0c0-1.376-1.116-2.491-2.492-2.491s-2.491 1.115-2.491 2.491 1.115 2.491 2.491 2.491 2.492-1.115 2.492-2.491"
           fill="#81bac8"
           id="path473" /></g><g
         transform="translate(218.16 153.16)"
         id="g479"><path
           d="m0 0c-0.965 0-1.747 0.782-1.747 1.747v27.679c0 0.965 0.782 1.747 1.747 1.747s1.748-0.782 1.748-1.747v-27.679c0-0.965-0.783-1.747-1.748-1.747"
           fill="#d8e9f0"
           id="path477" /></g><g
         transform="translate(218.91 166.21)"
         id="g483"><path
           d="m0 0h-0.174c-0.228 0-0.413 0.185-0.413 0.413v16.08c0 0.229 0.185 0.413 0.413 0.413h0.174c0.229 0 0.414-0.184 0.414-0.413v-16.08c0-0.228-0.185-0.413-0.414-0.413"
           fill="#f8fbfc"
           id="path481" /></g><g
         transform="translate(466.16 87.41)"
         id="g487"><path
           d="m0 0v-12.612h-432.32v12.612h377.8z"
           fill="#bed4de"
           id="path485" /></g><g
         clip-path="url(#clipPath701)"
         id="g493"><g
           transform="translate(371.45 232.33)"
           id="g491"><path
             d="m0 0v-33.835h-15.438v-33.836h27.725v67.671z"
             fill="#d8e9f0"
             id="path489" /></g></g><g
         clip-path="url(#clipPath717)"
         id="g497"><path
           d="m342.34 164.66h-14.405v14.406h14.405z"
           fill="#d8e9f0"
           id="path495" /></g><g
         clip-path="url(#clipPath731)"
         id="g503"><g
           transform="translate(156.07 196.79)"
           id="g501"><path
             d="m0 0v14.205h-27.517v-14.205h-6.414v-32.13h40.345v32.13z"
             fill="#d8e9f0"
             id="path499" /></g></g><g
         transform="translate(184.05 128.31)"
         id="g507"><path
           d="m0 0c3.393 0.285 3.635 19.273 3.112 27.335-0.522 8.062-2.442 14.314-6.584 13.966s-4.99-6.833-4.16-14.868c0.83-8.037 4.239-26.718 7.632-26.433"
           fill="#ffc9af"
           id="path505" /></g><g
         transform="translate(167.87 93.25)"
         id="g511"><path
           d="m0 0c2.799-1.131 13.087 23.452 15.333 29.011 2.245 5.559 4.186 11.6 1.047 12.868-3.139 1.267-5.938-4.427-8.183-9.985-2.245-5.56-10.996-30.764-8.197-31.894"
           fill="#ffc9af"
           id="path509" /></g><g
         transform="translate(166.12 90.287)"
         id="g515"><path
           d="m0 0c1.834-1.262 5.633-2.076 5.978-1.435 0.351 0.63-0.247 2.444-0.771 3.745l-7e-3 0.011c-0.158 0.385-0.307 0.728-0.42 0.98-0.136 0.318-0.226 0.504-0.226 0.504s6.081 24.03 4.955 24.335c-1.22 0.329-9.358-23.518-9.358-23.518s-0.04-0.15-0.108-0.363l-0.093-0.308-0.619-2.068c-0.079-0.251-0.677-0.976 0.669-1.883"
           fill="#ffc9af"
           id="path513" /></g></g><path
       d="m165.14 92.194c-0.094-0.245-0.373-1 0.973-1.907 1.835-1.262 5.633-2.076 5.977-1.434 0.352 0.629-0.245 2.443-0.77 3.743l-7e-3 0.012c-0.158 0.385-0.307 0.728-0.42 0.98-0.115-0.241-0.292-0.595-0.428-0.912-0.239-0.549-0.553-0.556-1.673 0.181-0.788 0.515-2.028 1.071-2.729 1.381 0 0-0.725-1.519-0.923-2.044"
       fill="url(#linearGradient771)"
       id="path519" /><g
       clip-path="url(#clipPath781)"
       id="g545"><g
         transform="translate(167.78 180.19)"
         id="g523"><path
           d="m0 0c2.265-0.941 8.958 11.709 11.398 17.289 2.442 5.58 3.369 10.413 0.603 11.564-2.765 1.15-5.54-2.915-7.775-8.581-2.237-5.665-6.491-19.33-4.226-20.272"
           fill="#ffc9af"
           id="path521" /></g><g
         transform="translate(180.57 156.83)"
         id="g527"><path
           d="m0 0c1.978 0.906-4.148 15.708-6.031 19.817-1.883 4.11-4.174 8.308-6.391 7.292s-0.533-5.492 1.35-9.601c1.883-4.11 9.094-18.414 11.072-17.508"
           fill="#ffc9af"
           id="path525" /></g><g
         transform="translate(178.94 160.64)"
         id="g531"><path
           d="m0 0c-2.409-0.895-0.348-4.965 0.405-6.327 1.227-2.22 4.657-3.318 5.525-2.854s-2.289 5.28-2.181 5.555c0.107 0.276 1.547-2.469 2.317-1.947 0.769 0.521-1.142 3.771-2.393 4.768-1.252 0.997-2.163 1.366-3.673 0.805"
           fill="#ffc9af"
           id="path529" /></g><g
         transform="translate(185.16 92.377)"
         id="g535"><path
           d="m0 0c-0.204-0.816-0.62-1.729-0.174-2.536 0.326-0.592 0.94-0.769 1.585-0.936 0.859-0.221 1.758-0.285 2.638-0.377 0.357-0.037 0.715-0.089 1.076-0.086 0.297 2e-3 0.591 0.055 0.889 0.073 0.581 0.035 1.166 0.011 1.748 0.061 0.057 5e-3 0.449-8e-3 0.503 0.07 0.055 0.079-0.048 0.184-0.096 0.226-0.25 0.22-0.58 0.318-0.839 0.527-0.29 0.235-0.556 0.499-0.85 0.73-0.585 0.461-1.213 0.866-1.903 1.153-0.132 0.055 3.893 25.27 2.692 25.532-1.091 0.237-7.266-24.426-7.269-24.437"
           fill="#ffc9af"
           id="path533" /></g><g
         transform="translate(200.24 127.3)"
         id="g539"><path
           d="m0 0c3.327 0.726 1.087 19.584-0.484 27.509-1.572 7.924-4.291 13.872-8.352 12.985-4.061-0.886-4.056-7.426-2.183-15.284s7.692-25.936 11.019-25.21"
           fill="#ffc9af"
           id="path537" /></g><g
         transform="translate(186.59 91.361)"
         id="g543"><path
           d="m 0,0 c 2.881,-0.903 11.652,24.297 13.446,30.018 1.794,5.72 3.246,11.897 0.016,12.91 C 10.232,43.94 7.896,38.041 6.103,32.32 4.309,26.6 -2.88,0.903 0,0"
           fill="#ffc9af"
           id="path541" /></g></g><path
       d="m188.21 90.23c-0.65-0.123-3.524 0.593-3.524 0.593l1e-3 -2.835c0-0.286 0.232-0.516 0.517-0.516l9.121 4e-3c0.8 0 1.139 1.011 0.5 1.489-1.329 0.983-3.453 1.975-5.024 2.732-0.373-0.329-0.934-1.344-1.591-1.467"
       fill="url(#linearGradient825)"
       id="path547" /><g
       clip-path="url(#clipPath835)"
       id="g565"><g
         transform="translate(224.11 198.32)"
         id="g551"><path
           d="m0 0c-1.422 1.622-13.747-8.401-17.117-11.356-3.369-2.957-6.708-6.325-5.113-8.143s5.37 1.053 8.739 4.009c3.37 2.955 14.914 13.868 13.491 15.49"
           fill="#ffc9af"
           id="path549" /></g><g
         transform="translate(176.34 162.05)"
         id="g555"><path
           d="m0 0 21.123 0.879 0.926 36.139-1.459 9.075-9.757 3.588-6.283-1.2c-3.572-0.681-6.113-3.865-5.986-7.5l2.29-25.576z"
           fill="#ffc9af"
           id="path553" /></g><g
         transform="translate(184.82 216.18)"
         id="g559"><path
           d="m0 0v-7.262s1.535-0.917 5.125-0.917c1.937 0 2.372 0.917 2.372 0.917v2.685z"
           fill="#ffc9af"
           id="path557" /></g><g
         transform="translate(183.97 221.6)"
         id="g563"><path
           d="m0 0c0.017-0.264 0.026-0.51 0.042-0.747 0-0.085-8e-3 -0.17-8e-3 -0.263-0.178-4.31 2.588-8.927 6.755-9.554 0 0 0.034-9e-3 0.093-0.018 0.034 0 0.085-8e-3 0.144-8e-3 0.891-0.11 4.116-0.374 5.295 0.925 1.383 1.527 2.614 4.327 2.614 6.24s-0.348 2.365-0.348 3.138c0 0.602 0.323 2.487 0.33 3.306 0.027 3.846-2.562 7.664-7.161 7.664-6.899 0-7.951-6.05-7.756-10.683"
           fill="#ffc9af"
           id="path561" /></g></g><path
       d="m179.35 210.43c-3.936-1.103-6.21-5.649-3.953-19.774 0.748-4.681 1.209-19.353 1.209-19.353l21.885 0.808s-1.972 9.964 1.248 17.994c1.826 4.557 0.818 8.297 0.741 9.659-0.277 4.874-1.419 7.257-2.886 8.619-1.11 1.029-7.597 2.616-13.245 2.616-1.824 0-3.56-0.165-4.999-0.569"
       fill="url(#linearGradient869)"
       id="path567" /><g
       clip-path="url(#clipPath879)"
       id="g577"><g
         transform="translate(203 178.29)"
         id="g571"><path
           d="m0 0c2.355 0.607 0.094 14.618-1.307 20.492-1.401 5.875-3.555 10.254-6.431 9.513-2.876-0.742-2.643-5.616-1.029-11.437 1.615-5.819 6.412-19.175 8.767-18.568"
           fill="#ffc9af"
           id="path569" /></g><g
         transform="translate(228.49 203.22)"
         id="g575"><path
           d="m0 0c-0.566 0.632-3.643-2.393-4.633-3.174-0.15-0.118-0.255-0.187-0.293-0.182-0.04 4e-3 -0.036 0.057-0.011 0.134 0.161 0.484 1.374 2.177 0.785 2.71-0.648 0.587-3.07-1.713-3.891-3.181-0.045-0.081-0.106-0.17-0.141-0.245-0.666-1.44-0.807-2.405 0.088-3.728 1.428-2.11 4.865 0.832 6 1.878 0.957 0.882 1.652 2.202 2.016 3.376 0.34 1.094 0.393 2.06 0.08 2.412"
           fill="#ffc9af"
           id="path573" /></g></g><path
       d="m191.6 233.9c-0.606-0.017-1.209-0.113-1.789-0.288-0.339-0.103-1.222-0.716-1.515-0.678-2.642 0.333-6.287-1.706-6.306-4.665-2e-3 -0.442 0.078-0.894-0.025-1.325-0.351-1.482-2.615-2.054-2.632-3.577-9e-3 -0.85 0.745-1.699 0.379-2.468-0.11-0.234-0.31-0.41-0.505-0.58l-1.21-1.055c-0.551-0.481-1.142-1.041-1.189-1.769-0.051-0.792 0.57-1.516 0.5-2.306-0.067-0.753-0.719-1.294-1.3-1.774-0.581-0.482-1.188-1.111-1.111-1.861 0.032-0.321 0.188-0.612 0.301-0.912 0.357-0.953 0.261-2.066-0.256-2.943-0.364-0.62-0.935-1.156-1.042-1.867-0.177-1.181 0.999-2.117 2.116-2.541 1.229-0.468 2.543-0.663 3.849-0.819 2.252-0.268 4.517-0.428 6.785-0.479 2.926-0.065 6.094-0.358 8.577 1.435 0.803 0.58 1.556 1.451 1.442 2.434-0.081 0.705-0.596 1.309-0.641 2.016-0.085 1.297 1.408 2.314 1.285 3.607-0.083 0.878-0.886 1.513-1.165 2.35-0.396 1.185 0.324 2.418 0.903 3.525 0.315 0.603 0.588 1.283 0.624 1.97 0.028 0.522-0.204 1.024-0.175 1.533 0.065 1.132 1.162 1.72 1.741 2.581 0.652 0.973 0.587 2.255 0.35 3.402-2e-3 0.01-4e-3 0.021-7e-3 0.031-0.316 1.516-0.904 2.993-1.859 4.21-1.404 1.788-3.654 2.815-5.926 2.815-0.066 0-0.133-1e-3 -0.199-2e-3"
       fill="url(#linearGradient907)"
       id="path579" /><path
       d="m172.56 161.84c-1.073-9.163 5.266-26.327 5.266-27.437 0-1.109-5.931-15.998-8.231-25.076 0 0 1.291-1.856 7.505-2.985 0 0 9.53 20.738 10.414 25.419s-0.201 44.411-0.201 44.411l-10.936 0.856c0.184-4.592-3.28-10.614-3.817-15.188"
       fill="url(#linearGradient929)"
       id="path581" /><path
       d="m186 176.27s-1.801-9.087-0.12-19.336c1.682-10.249 8.42-24.612 8.42-24.612s-0.256-1.291-2.596-7.102c-2.34-5.81-5.065-18.398-5.065-18.398 4.214-2.502 8.346-1.937 8.346-1.937s8.097 22.111 8.42 24.451c0.322 2.341 0.887 6.698-0.888 21.385-1.775 14.686-4.532 25.549-4.532 25.549z"
       fill="url(#linearGradient951)"
       id="path583" /></g></svg>
